<svg width="198" height="38" viewBox="0 0 198 38" fill="none" xmlns="http://www.w3.org/2000/svg">
<path d="M29.6929 33.4971C29.8749 34.5866 28.9635 35.4888 27.8589 35.4888C25.7093 35.4888 22.0323 35.4888 17.8574 35.4888C13.6825 35.4888 10.0055 35.4888 7.85591 35.4888C6.75134 35.4888 5.83995 34.5866 6.02194 33.4971C6.97064 27.8176 11.9085 23.4888 17.8574 23.4888C23.8063 23.4888 28.7442 27.8176 29.6929 33.4971Z" fill="#005DFF"/>
<path d="M28.3256 18.8484C29.0011 17.3828 29.3778 15.7511 29.3778 14.0315C29.3778 7.66874 24.2198 2.51074 17.8571 2.51074C11.4944 2.51074 6.33643 7.66874 6.33643 14.0315C6.33643 15.7509 6.71312 17.3824 7.3885 18.8479H7.3715L7.48623 19.0546C7.67111 19.4356 7.87638 19.8049 8.1006 20.161L15.1179 32.7988C16.3354 34.9076 19.3792 34.9076 20.5967 32.7988L27.5516 20.2586C27.8229 19.8371 28.0674 19.3968 28.2829 18.94L28.3337 18.8484H28.3256Z" fill="#00CFFF"/>
<path fill-rule="evenodd" clip-rule="evenodd" d="M24.6077 25.5662C22.6845 24.2552 20.3603 23.4888 17.8572 23.4888C15.3525 23.4888 13.027 24.2562 11.103 25.5686L15.1177 32.7988C16.3352 34.9076 19.379 34.9076 20.5965 32.7988L24.6077 25.5662Z" fill="#202020"/>
<circle cx="17.8576" cy="14.6398" r="4.86199" fill="white"/>
<path d="M46.7641 28V13.672H41.8681V11.2H54.7561V13.672H49.8361V28H46.7641ZM60.0355 28.288C58.8835 28.288 57.8435 28.024 56.9155 27.496C56.0035 26.968 55.2755 26.24 54.7315 25.312C54.2035 24.368 53.9395 23.28 53.9395 22.048C53.9395 20.816 54.2115 19.736 54.7555 18.808C55.2995 17.864 56.0275 17.128 56.9395 16.6C57.8675 16.072 58.9075 15.808 60.0595 15.808C61.1955 15.808 62.2195 16.072 63.1315 16.6C64.0595 17.128 64.7875 17.864 65.3155 18.808C65.8595 19.736 66.1315 20.816 66.1315 22.048C66.1315 23.28 65.8595 24.368 65.3155 25.312C64.7875 26.24 64.0595 26.968 63.1315 27.496C62.2035 28.024 61.1715 28.288 60.0355 28.288ZM60.0355 25.624C60.8355 25.624 61.5315 25.328 62.1235 24.736C62.7155 24.128 63.0115 23.232 63.0115 22.048C63.0115 20.864 62.7155 19.976 62.1235 19.384C61.5315 18.776 60.8435 18.472 60.0595 18.472C59.2435 18.472 58.5395 18.776 57.9475 19.384C57.3715 19.976 57.0835 20.864 57.0835 22.048C57.0835 23.232 57.3715 24.128 57.9475 24.736C58.5395 25.328 59.2355 25.624 60.0355 25.624ZM70.0542 14.248C69.4942 14.248 69.0302 14.08 68.6622 13.744C68.3102 13.408 68.1342 12.984 68.1342 12.472C68.1342 11.96 68.3102 11.544 68.6622 11.224C69.0302 10.888 69.4942 10.72 70.0542 10.72C70.6142 10.72 71.0702 10.888 71.4222 11.224C71.7902 11.544 71.9742 11.96 71.9742 12.472C71.9742 12.984 71.7902 13.408 71.4222 13.744C71.0702 14.08 70.6142 14.248 70.0542 14.248ZM68.5182 28V16.096H71.5902V28H68.5182ZM74.3166 28V10.72H77.3886V28H74.3166ZM85.8316 28.288C84.6316 28.288 83.5676 28.032 82.6396 27.52C81.7116 27.008 80.9836 26.288 80.4556 25.36C79.9276 24.432 79.6636 23.36 79.6636 22.144C79.6636 20.912 79.9196 19.816 80.4316 18.856C80.9596 17.896 81.6796 17.152 82.5916 16.624C83.5196 16.08 84.6076 15.808 85.8556 15.808C87.0236 15.808 88.0556 16.064 88.9516 16.576C89.8476 17.088 90.5436 17.792 91.0396 18.688C91.5516 19.568 91.8076 20.552 91.8076 21.64C91.8076 21.816 91.7996 22 91.7836 22.192C91.7836 22.384 91.7756 22.584 91.7596 22.792H82.7116C82.7756 23.72 83.0956 24.448 83.6716 24.976C84.2636 25.504 84.9756 25.768 85.8076 25.768C86.4316 25.768 86.9516 25.632 87.3676 25.36C87.7996 25.072 88.1196 24.704 88.3276 24.256H91.4476C91.2236 25.008 90.8476 25.696 90.3196 26.32C89.8076 26.928 89.1676 27.408 88.3996 27.76C87.6476 28.112 86.7916 28.288 85.8316 28.288ZM85.8556 18.304C85.1036 18.304 84.4396 18.52 83.8636 18.952C83.2876 19.368 82.9196 20.008 82.7596 20.872H88.6876C88.6396 20.088 88.3516 19.464 87.8236 19C87.2956 18.536 86.6396 18.304 85.8556 18.304ZM99.0044 28C97.7564 28 96.7564 27.696 96.0044 27.088C95.2524 26.48 94.8764 25.4 94.8764 23.848V18.664H92.8364V16.096H94.8764L95.2364 12.904H97.9484V16.096H101.164V18.664H97.9484V23.872C97.9484 24.448 98.0684 24.848 98.3084 25.072C98.5644 25.28 98.9964 25.384 99.6044 25.384H101.092V28H99.0044ZM103.322 28V16.096H106.034L106.274 18.112C106.642 17.408 107.17 16.848 107.858 16.432C108.562 16.016 109.386 15.808 110.33 15.808C111.802 15.808 112.946 16.272 113.762 17.2C114.578 18.128 114.986 19.488 114.986 21.28V28H111.914V21.568C111.914 20.544 111.706 19.76 111.29 19.216C110.874 18.672 110.226 18.4 109.346 18.4C108.482 18.4 107.77 18.704 107.21 19.312C106.666 19.92 106.394 20.768 106.394 21.856V28H103.322ZM123.228 28.288C122.028 28.288 120.964 28.032 120.036 27.52C119.108 27.008 118.38 26.288 117.852 25.36C117.324 24.432 117.06 23.36 117.06 22.144C117.06 20.912 117.316 19.816 117.828 18.856C118.356 17.896 119.076 17.152 119.988 16.624C120.916 16.08 122.004 15.808 123.252 15.808C124.42 15.808 125.452 16.064 126.348 16.576C127.244 17.088 127.94 17.792 128.436 18.688C128.948 19.568 129.204 20.552 129.204 21.64C129.204 21.816 129.196 22 129.18 22.192C129.18 22.384 129.172 22.584 129.156 22.792H120.108C120.172 23.72 120.492 24.448 121.068 24.976C121.66 25.504 122.372 25.768 123.204 25.768C123.828 25.768 124.348 25.632 124.764 25.36C125.196 25.072 125.516 24.704 125.724 24.256H128.844C128.62 25.008 128.244 25.696 127.716 26.32C127.204 26.928 126.564 27.408 125.796 27.76C125.044 28.112 124.188 28.288 123.228 28.288ZM123.252 18.304C122.5 18.304 121.836 18.52 121.26 18.952C120.684 19.368 120.316 20.008 120.156 20.872H126.084C126.036 20.088 125.748 19.464 125.22 19C124.692 18.536 124.036 18.304 123.252 18.304ZM135.411 28.288C134.387 28.288 133.547 28.128 132.891 27.808C132.235 27.472 131.747 27.032 131.427 26.488C131.107 25.944 130.947 25.344 130.947 24.688C130.947 23.584 131.379 22.688 132.243 22C133.107 21.312 134.403 20.968 136.131 20.968H139.155V20.68C139.155 19.864 138.923 19.264 138.459 18.88C137.995 18.496 137.419 18.304 136.731 18.304C136.107 18.304 135.563 18.456 135.099 18.76C134.635 19.048 134.347 19.48 134.235 20.056H131.235C131.315 19.192 131.603 18.44 132.099 17.8C132.611 17.16 133.267 16.672 134.067 16.336C134.867 15.984 135.763 15.808 136.755 15.808C138.451 15.808 139.787 16.232 140.763 17.08C141.739 17.928 142.227 19.128 142.227 20.68V28H139.611L139.323 26.08C138.971 26.72 138.475 27.248 137.835 27.664C137.211 28.08 136.403 28.288 135.411 28.288ZM136.107 25.888C136.987 25.888 137.667 25.6 138.147 25.024C138.643 24.448 138.955 23.736 139.083 22.888H136.467C135.651 22.888 135.067 23.04 134.715 23.344C134.363 23.632 134.187 23.992 134.187 24.424C134.187 24.888 134.363 25.248 134.715 25.504C135.067 25.76 135.531 25.888 136.107 25.888ZM144.679 28V16.096H147.415L147.703 18.328C148.135 17.56 148.719 16.952 149.455 16.504C150.207 16.04 151.087 15.808 152.095 15.808V19.048H151.231C150.559 19.048 149.959 19.152 149.431 19.36C148.903 19.568 148.487 19.928 148.183 20.44C147.895 20.952 147.751 21.664 147.751 22.576V28H144.679ZM153.714 28V16.096H156.426L156.69 17.704C157.074 17.128 157.578 16.672 158.202 16.336C158.842 15.984 159.578 15.808 160.41 15.808C162.25 15.808 163.554 16.52 164.322 17.944C164.754 17.288 165.33 16.768 166.05 16.384C166.786 16 167.586 15.808 168.45 15.808C170.002 15.808 171.194 16.272 172.026 17.2C172.858 18.128 173.274 19.488 173.274 21.28V28H170.202V21.568C170.202 20.544 170.002 19.76 169.602 19.216C169.218 18.672 168.618 18.4 167.802 18.4C166.97 18.4 166.298 18.704 165.786 19.312C165.29 19.92 165.042 20.768 165.042 21.856V28H161.97V21.568C161.97 20.544 161.77 19.76 161.37 19.216C160.97 18.672 160.354 18.4 159.522 18.4C158.706 18.4 158.042 18.704 157.53 19.312C157.034 19.92 156.786 20.768 156.786 21.856V28H153.714ZM181.495 28.288C180.295 28.288 179.231 28.032 178.303 27.52C177.375 27.008 176.647 26.288 176.119 25.36C175.591 24.432 175.327 23.36 175.327 22.144C175.327 20.912 175.583 19.816 176.095 18.856C176.623 17.896 177.343 17.152 178.255 16.624C179.183 16.08 180.271 15.808 181.519 15.808C182.687 15.808 183.719 16.064 184.615 16.576C185.511 17.088 186.207 17.792 186.703 18.688C187.215 19.568 187.471 20.552 187.471 21.64C187.471 21.816 187.463 22 187.447 22.192C187.447 22.384 187.439 22.584 187.423 22.792H178.375C178.439 23.72 178.759 24.448 179.335 24.976C179.927 25.504 180.639 25.768 181.471 25.768C182.095 25.768 182.615 25.632 183.031 25.36C183.463 25.072 183.783 24.704 183.991 24.256H187.111C186.887 25.008 186.511 25.696 185.983 26.32C185.471 26.928 184.831 27.408 184.063 27.76C183.311 28.112 182.455 28.288 181.495 28.288ZM181.519 18.304C180.767 18.304 180.103 18.52 179.527 18.952C178.951 19.368 178.583 20.008 178.423 20.872H184.351C184.303 20.088 184.015 19.464 183.487 19C182.959 18.536 182.303 18.304 181.519 18.304Z" fill="#001C50"/>
</svg>
